<svg width="35" height="35" viewBox="0 0 35 35" fill="none" xmlns="http://www.w3.org/2000/svg">
<path d="M17.5007 8.39728C15.7144 8.39735 13.9682 8.92712 12.4829 9.91962C10.9976 10.9121 9.83999 12.3227 9.15643 13.9731C8.47286 15.6235 8.29405 17.4395 8.64259 19.1916C8.99114 20.9436 9.85139 22.5529 11.1146 23.816C12.3777 25.0791 13.9871 25.9393 15.7392 26.2878C17.4912 26.6362 19.3072 26.4574 20.9576 25.7737C22.608 25.0901 24.0186 23.9325 25.011 22.4472C26.0035 20.9619 26.5332 19.2156 26.5332 17.4293C26.5286 15.0352 25.5754 12.7405 23.8825 11.0477C22.1896 9.35484 19.8948 8.40181 17.5007 8.39728ZM17.5007 23.2158C16.3564 23.2157 15.2377 22.8763 14.2862 22.2405C13.3348 21.6047 12.5932 20.701 12.1553 19.6437C11.7174 18.5865 11.6028 17.4231 11.8261 16.3007C12.0494 15.1784 12.6004 14.1474 13.4096 13.3382C14.2188 12.529 15.2498 11.978 16.3722 11.7547C17.4946 11.5314 18.6579 11.646 19.7152 12.0839C20.7725 12.5218 21.6762 13.2633 22.312 14.2148C22.9478 15.1663 23.2872 16.2849 23.2873 17.4293C23.2805 18.9619 22.6686 20.4297 21.5849 21.5134C20.5012 22.5971 19.0333 23.209 17.5007 23.2158Z" fill="black"/>
<path d="M26.8853 10.2318C28.0155 10.2318 28.9318 9.31562 28.9318 8.18541C28.9318 7.05519 28.0155 6.13898 26.8853 6.13898C25.7551 6.13898 24.8389 7.05519 24.8389 8.18541C24.8389 9.31562 25.7551 10.2318 26.8853 10.2318Z" fill="black"/>
<path d="M32.1772 2.89307C30.3429 0.98804 27.7319 0 24.7681 0H10.2319C4.0929 0 0 4.09286 0 10.2318V24.6975C0 27.7316 0.98805 30.3426 2.9638 32.248C4.8692 34.0827 7.4088 35 10.3026 35H24.6977C27.7319 35 30.2722 34.012 32.1069 32.248C34.0123 30.4133 35 27.803 35 24.7682V10.2318C35 7.26803 34.0119 4.72775 32.1772 2.89307ZM31.8951 24.7679C31.8951 26.9553 31.1188 28.7193 29.8487 29.9191C28.5785 31.1189 26.8145 31.7538 24.6974 31.7538H10.3022C8.18545 31.7538 6.4211 31.1185 5.15095 29.9191C3.8808 28.649 3.24555 26.885 3.24555 24.6975V10.2318C3.24555 8.11502 3.8808 6.35069 5.15095 5.08055C6.3504 3.88111 8.1851 3.24587 10.3022 3.24587H24.8388C26.9556 3.24587 28.7199 3.88111 29.9901 5.15125C31.2562 6.53595 31.9388 8.35602 31.8955 10.2318L31.8951 24.7679Z" fill="black"/>
</svg>
