<svg width="37" height="35" viewBox="0 0 37 35" fill="none" xmlns="http://www.w3.org/2000/svg">
<path d="M29.6524 14.227C29.9084 14.227 30.154 14.3287 30.335 14.5097C30.5161 14.6908 30.6178 14.9364 30.6178 15.1924C30.6178 15.4484 30.5161 15.694 30.335 15.8751C30.154 16.0561 29.9084 16.1578 29.6524 16.1578H26.9652V17.8807H29.6524C29.908 17.8807 30.1532 17.9822 30.334 18.163C30.5148 18.3438 30.6163 18.5889 30.6163 18.8446C30.6163 19.1003 30.5148 19.3454 30.334 19.5262C30.1532 19.707 29.908 19.8085 29.6524 19.8085H25.9991C25.7444 19.807 25.5006 19.7049 25.3207 19.5245C25.1409 19.3442 25.0396 19.1001 25.0388 18.8453V11.5395C25.0396 11.2838 25.1414 11.0389 25.3222 10.8582C25.5029 10.6774 25.7479 10.5756 26.0035 10.5748H29.6571C29.7838 10.5751 29.9092 10.6003 30.0261 10.6491C30.1431 10.6978 30.2493 10.7691 30.3386 10.8589C30.428 10.9487 30.4988 11.0552 30.547 11.1723C30.5952 11.2895 30.6199 11.415 30.6196 11.5417C30.6193 11.6684 30.5941 11.7937 30.5453 11.9107C30.4966 12.0276 30.4253 12.1338 30.3355 12.2232C30.2457 12.3125 30.1392 12.3833 30.0221 12.4316C29.9049 12.4798 29.7794 12.5044 29.6527 12.5041H26.9652V14.227H29.6524ZM23.7496 18.845C23.7491 19.0473 23.6849 19.2442 23.5662 19.408C23.4475 19.5718 23.2802 19.6941 23.0881 19.7575C22.9897 19.7891 22.8869 19.8051 22.7834 19.8049C22.6321 19.8081 22.4823 19.775 22.3464 19.7084C22.2105 19.6418 22.0926 19.5435 22.0025 19.4219L18.2617 14.3427V18.8446C18.2642 18.9726 18.2412 19.0997 18.194 19.2187C18.1467 19.3376 18.0762 19.4459 17.9866 19.5373C17.897 19.6287 17.7901 19.7013 17.6721 19.7508C17.5541 19.8004 17.4274 19.8259 17.2994 19.8259C17.1715 19.8259 17.0448 19.8004 16.9268 19.7508C16.8088 19.7013 16.7019 19.6287 16.6123 19.5373C16.5227 19.4459 16.4522 19.3376 16.4049 19.2187C16.3577 19.0997 16.3347 18.9726 16.3372 18.8446V11.5395C16.3372 11.3376 16.4008 11.141 16.5191 10.9774C16.6373 10.8139 16.8041 10.6917 16.9957 10.6284C17.0911 10.5949 17.1915 10.5779 17.2927 10.5781C17.44 10.5825 17.5844 10.6197 17.7156 10.687C17.8467 10.7542 17.9612 10.8499 18.0508 10.9669L21.8202 16.0659V11.5395C21.8202 11.2836 21.9219 11.0382 22.1028 10.8573C22.2837 10.6764 22.5291 10.5748 22.7849 10.5748C23.0408 10.5748 23.2861 10.6764 23.4671 10.8573C23.648 11.0382 23.7496 11.2836 23.7496 11.5395V18.845ZM14.9587 18.845C14.9587 18.9715 14.9338 19.0967 14.8853 19.2136C14.8369 19.3304 14.766 19.4366 14.6765 19.5261C14.5871 19.6155 14.4809 19.6865 14.3641 19.7349C14.2472 19.7833 14.1219 19.8082 13.9955 19.8082C13.869 19.8082 13.7437 19.7833 13.6268 19.7349C13.51 19.6865 13.4038 19.6155 13.3144 19.5261C13.2249 19.4366 13.154 19.3304 13.1056 19.2136C13.0572 19.0967 13.0322 18.9715 13.0322 18.845V11.5395C13.0322 11.413 13.0572 11.2877 13.1056 11.1709C13.154 11.054 13.2249 10.9478 13.3144 10.8584C13.4038 10.7689 13.51 10.698 13.6268 10.6496C13.7437 10.6012 13.869 10.5762 13.9955 10.5762C14.1219 10.5762 14.2472 10.6012 14.3641 10.6496C14.4809 10.698 14.5871 10.7689 14.6765 10.8584C14.766 10.9478 14.8369 11.054 14.8853 11.1709C14.9338 11.2877 14.9587 11.413 14.9587 11.5395V18.845ZM11.1826 19.8082H7.52895C7.27379 19.8067 7.02948 19.7048 6.84892 19.5246C6.66837 19.3443 6.56609 19.1001 6.56426 18.845V11.5395C6.56426 11.2836 6.6659 11.0382 6.84681 10.8573C7.02772 10.6764 7.2731 10.5748 7.52895 10.5748C7.7848 10.5748 8.03017 10.6764 8.21108 10.8573C8.39199 11.0382 8.49363 11.2836 8.49363 11.5395V17.8803H11.1826C11.4383 17.8803 11.6835 17.9818 11.8642 18.1626C12.045 18.3434 12.1466 18.5886 12.1466 18.8442C12.1466 19.0999 12.045 19.3451 11.8642 19.5259C11.6835 19.7066 11.4383 19.8082 11.1826 19.8082ZM36.7499 14.9175C36.7499 6.69326 28.5039 0 18.3749 0C8.24594 0 0 6.69326 0 14.9175C0 22.284 6.53854 28.4565 15.3659 29.6307C15.9645 29.7564 16.7793 30.0258 16.9858 30.534C17.1284 31.074 17.1482 31.6391 17.0439 32.1877L16.7929 33.7496C16.7241 34.2105 16.4254 35.5658 18.3992 34.7375C20.373 33.9091 28.9894 28.4914 32.8481 24.0557C35.4882 21.1632 36.7499 18.2015 36.7499 14.9175Z" fill="black"/>
</svg>
