<svg width="50" height="35" viewBox="0 0 50 35" fill="none" xmlns="http://www.w3.org/2000/svg">
<path d="M48.9555 5.4655C48.6706 4.40595 48.1123 3.43987 47.3365 2.66405C46.5606 1.88822 45.5946 1.32989 44.535 1.045C40.6355 -1.78814e-06 25 0 25 0C25 0 9.3645 -1.78814e-06 5.465 1.045C4.40548 1.32994 3.43942 1.88828 2.6636 2.6641C1.88779 3.43992 1.32944 4.40597 1.0445 5.4655C0 9.3645 0 17.5 0 17.5C0 17.5 0 25.6355 1.0445 29.5345C1.32941 30.5941 1.88774 31.5602 2.66355 32.3361C3.43937 33.112 4.40544 33.6705 5.465 33.9555C9.3645 35 25 35 25 35C25 35 40.6355 35 44.535 33.9555C45.5946 33.6705 46.5607 33.1121 47.3365 32.3362C48.1123 31.5603 48.6706 30.5941 48.9555 29.5345C50 25.636 50 17.5 50 17.5C50 17.5 50 9.3645 48.9555 5.4655ZM20 25V10L32.99 17.5L20 25Z" fill="black"/>
</svg>
