<svg width="36" height="35" viewBox="0 0 36 35" fill="none" xmlns="http://www.w3.org/2000/svg">
<path fill-rule="evenodd" clip-rule="evenodd" d="M17.8113 0C7.9621 0 0 8.0208 0 17.9436C0 25.8755 5.10159 32.5896 12.1789 34.9659C13.0637 35.1446 13.3878 34.5799 13.3878 34.1048C13.3878 33.6888 13.3586 32.2629 13.3586 30.7773C8.40398 31.847 7.37221 28.6383 7.37221 28.6383C6.57596 26.5587 5.39618 26.0242 5.39618 26.0242C3.77452 24.925 5.5143 24.925 5.5143 24.925C7.31315 25.0439 8.25705 26.7669 8.25705 26.7669C9.84918 29.4998 12.4147 28.7276 13.4469 28.2522C13.5942 27.0935 14.0663 26.2915 14.5676 25.8459C10.6159 25.4299 6.4582 23.8852 6.4582 16.9928C6.4582 15.0321 7.16549 13.4279 8.28622 12.1803C8.10939 11.7348 7.48997 9.89256 8.4634 7.4269C8.4634 7.4269 9.9673 6.95148 13.3583 9.26876C14.8101 8.87599 16.3073 8.67618 17.8113 8.67449C19.3152 8.67449 20.8482 8.88267 22.2639 9.26876C25.6553 6.95148 27.1592 7.4269 27.1592 7.4269C28.1326 9.89256 27.5128 11.7348 27.336 12.1803C28.4862 13.4279 29.1644 15.0321 29.1644 16.9928C29.1644 23.8852 25.0067 25.4001 21.0254 25.8459C21.6744 26.4103 22.2344 27.4796 22.2344 29.1731C22.2344 31.5793 22.2052 33.5105 22.2052 34.1044C22.2052 34.5799 22.5297 35.1446 23.4142 34.9663C30.4914 32.5892 35.593 25.8755 35.593 17.9436C35.6222 8.0208 27.6309 0 17.8113 0Z" fill="black"/>
</svg>
